/* XPM */
static char *d812e26b109846e2a7d7ccb245dabb1775EhzDTBTROcb5Io[] = {
/* columns rows colors chars-per-pixel */
"288 64 28 1 ",
"  c None",
". c #242326",
"X c #3D4E3D",
"o c #43403E",
"O c #4F5A38",
"+ c #71693F",
"@ c #3E734E",
"# c #595652",
"$ c #696A6A",
"% c #7B767D",
"& c #9E7C59",
"* c #7AB055",
"= c #4D9262",
"- c #DFBD00",
"; c #F5DB38",
": c #FFFF3A",
"> c #B08A63",
", c #C2986D",
"< c #263798",
"1 c #3F689F",
"2 c #5B6EE1",
"3 c #847E87",
"4 c #639BFF",
"5 c #4BA2E1",
"6 c #5FCDE4",
"7 c #5AE0FD",
"8 c #9FEEFF",
"9 c white",
/* pixels */
"================================44444444444444444444444444444444,>&>,>&>,,,&,,&>,,,,,,&>,>>&>,,,########o#################$$####=============================================+++++==============================================================================                                ",
"======================@=========44444444444444444444444444444444>&&&>&>,,,,&>,&,,,,,,>&>,,>&&>,,$$$##ooo#$$$$$33333333$$$$$$#$$$======================@=====================+;;;;;++==@===============================@===============================@=========                                ",
"=====================@=@========44444444444444444444444444444444>&>>&&,,,,>&>,&>,,>>>>&>,,>&&>>>3$$$$#o#$$333333333333333333$$33=====================@=@===================+;;;;;;;;+@=@=============================@=@================$$$$$$$$$$$$$$$$========                                ",
"======================@=========44444444444444444444444444444444&>,,>&>,,>&&&>&&>>&&&&&&>>>&&&&&33$$$##$$$3333333333333333333$33======================@===================+;;;;;;;;;;+@=================$$$$$$$$$$$$$$$$===============$$33333333333333$$=======                                ",
"================================44444444444444444444444444444444&>,,>&&>>>&&&&>>&&&>>>>>&&&>>&&&33$$$##$$$333333333$333333333333=========================================+;;;;;;;:;;;;+================$$33333333333333$$=============$$3333333333333333$$======                                ",
"================================44444444444444444444444444444444&&>>&&&&&&>>&>,,>>&>,,,>&>,,,>&&33$$$#o#$$$3333333$$333333333333========================================+;;;;;;;:::;;--+==============$$3333322222233333$$===========$$33$$$$$$$$$$$$$$33$$=====                                ",
"=================*==============44444444444444444444444444444444>&&&>>>>&>,>&>,,,,>&,,,,&>>>>>&>$$$##ooo##$$3333$$$#$33333333333=================*======================+;;;-;;:::::---+=============$$33$$2244444422$$33$$==========$33$##############$33$=====                                ",
"=================**=============44444444444444444444444444444444>&>>,,,>&,,,>&>,,,>&,,,>&&&&&&&,###o################$$$$$#######=================**====================+;;;-;;::::::;---+============$33$22446666444422$33$=========$$3$################$%$$====                                ",
"======*==========**==*==========44444444444444444444444444444444>&>,,,,,&>,>>&&>,,>&>>>>&&&>>>&>####$$$$$$#######o##############======*==========**==*================*+;;;-;::::::;;---+===========$$3$2444644444444442$%$$========$33$################$%%$====                                ",
"======*===========*@**==========44444444444444444444444444444444&&>,,,,,>&>&&&&&>>&>&&&&>&&>,,>&33333333333333$$$####ooo#$$##$$3======*===========*@**================*+;;;-::::::;;;;--+===========$33$<44444444444444<$%%$========$33$################$%%$====                                ",
"======*=*=========@**@==========44444444444444444444444444444444,&>,,,,,>&&>>&&&&&>,,>&>,>&>,,,&333333333333333333$$$#o#$3$$$333======*=*=========@**@================*+;;;+:::::;;-;;--+===========$33$<44444444444444<$%%$========$333$$############$$%%3$====                                ",
"======*=*==========@@===========44444444444444444444444444444444,,&>>>>>>&>,,>>&&&>>>>&,,,>&,,>&3333333333333333333$$##$33$$3333======*=*==========@@=================*=+;:+-:::;;;;;;-+============$333<<244444444224<$%%3$========$33333$$########$$%%%33$====                                ",
"========*=======================44444444444444444444444444444444>>&&&&&&&>,,,,,>&&&&&&>,>>>&>>&&333333333333333$333$$##$33333333========*===============================+:::;-:;;;-;;;-+============$33333<2<<<<<<<<<2<%%33$========$3333333$$$$$$$$%%%3333$====                                ",
"================================44444444444444444444444444444444&&&&>>>&>,,>,,,>&>>>>>&>&&&&&&>>33333333333333$$$3$$#o#$33333333=========================================+::::;---;;;;+=============$333333<$$$$$$$$%<%3333$========$33333333%%%%%%%%333333$====                                ",
"================================44444444444444444444444444444444>>&&>,>&>>,,>>,>&>,,,,>&>>>>&>,,$$$33$$$333$$$$#$###oo##$$$$$$$$==========================================+::;;;;;;;;+==============$33333333%%%%%%%%<33333$========$333333333333333333333%$====                                ",
"*===============================44444444444444444444444444444444,,>&>,>&>,,,,>>&,,,,,,>&>,>&>,,,#################oo###oo########*===============================*==========+;;;;;;;;+===========*===$3333333333333333<3333%$====*===$33333333333333333333%%$====                                ",
"=*=============================*44444444444444444444444444444444,,>&>>>&>>,,,>&>>,,,,,>&>>>&>,,,##oooooooo#########$$$$#########=*=============================*=*==========+++;;;++===========*=*==$33333333333333333333%%$===*=*==$33333333333333333333%%$===*                                ",
"*===============================44444444444444444444444444444444,>&&&&&>&>>,>>&&&>,,,,>&&&&&>,,,$$####ooo#$$$$$333333$$$$$$$$$$$*===============================*==============+++==============*===$33333333333333333333%%$====*===$33333333333333333333%%$====                                ",
"================================44444444444444444444444444444444>&>>&>>,>&>>>>&>>&>>>>&>,,,>&>>>33$$$$#o#$$333333333333333333333====================================================================$33333333333333333333%%$========$33333333333333333333%%$====                                ",
"================================44444444444444444444444444444444&>,>&>,,,>&>>&>,,>&&&&&>>>>>&&&&333$$$##$$3333333333333333333333====================================================================$33333333333333333333%%$========$3333333333333333333%%%$====                                ",
"================================44444444444444444444444444444444&>>&>,,,,,>&&>,,,>&&&&&&&&&&&>>>3333$$##$$33$$333333333$$$$$$333====================================================================$3333333333333333333%%%$========$3333333333333333333%%%$====                                ",
"==========@=====================44444444444444444444444444444444&&&&>,,,,>>&>,,,,,>&&>>>>>&>>,,>333$$#o##$$$$333333333333$$33333==========@===============================@=========================$3333333333333333333%%%$========$3333333333333333333%%%$====                                ",
"=========@=@====================44444444444444444444444444444444>>>>&>,>>&&&>,,,,,>&>,,,,>&>,,,&$$$##ooo####$$$$$$$$$3333333333$=========@=@=====77======================@=@========================$3333333333333333333%%%$========$333333333333333333%%%%$====                                ",
"==========@=====================44444444444444444444444444444444>,,,>&>&&>>>&>,,,,,>&>,,,,>&>,,&###o####o#############$$$$$$$###==========@====7775=======================@=========================$333333333333333333%%%%$========$33333333333333333%%%%%$====                                ",
"=========================*======44444444444444444444444444444444,,,,,>&>>,,,>&>,,,,>&&>,,>&>&>>&######$$#############o#######oo#=============77997775====*===============================*==========$33333333333333333%%%%%$========$3333333333333333%%%%%%$====                                ",
"=======================*=*======44444444444444444444444444444444>,,,,,&>,,,,,>&>>>>&>>&>>&>,>&&&$$$$#$$$$$3333$$$$$$$###ooo####$============7799988775=*=*=============================*=*==========$3333333333333333%%%%%%$========$333333333333333%%%%%%%$====                                ",
"=======================*=*======44444444444444444444444444444444&>,>>>&,,,,,,&&&&&&>,,>&&>,,,>&&333$$$$333333333333333$$#o#$$$33============7999888875=*=*====================XXXX=====*=*==========$333333333333333%%%%%%%$=========$$333333333333%%%%%%$$=====                                ",
"=======================*========44444444444444444444444444444444&>>&&&&>,,,,>&>>>>&>,,,&>,,,,>&&3333$333333333333333333$$##$$333===========78.98888.851*====================XXXXXXXX===*=============$$333333333333%%%%%%$$============$$33333333%%%%%%$$=======                                ",
"================================44444444444444444444444444444444&>&>>>>&>>>>&&>,,>&,,,,&,,,,,>&&3333333333333333333333$$$##$$333===========788855888851====================XXXXXXXXXX==================$$33333333%%%%%%$$================$$$$$$$$$$$$$$=========                                ",
"=============*==================44444444444444444444444444444444,&>,,,>&&&&&&&&>>&&>>,>&>,,,,>&>33333333333333333333$$$$$#o#$$33===========778888888551=====================XOXXXXXX=====================$$$$$$$$$$$$$$======================*==================                                ",
"============*=*=================44444444444444444444444444444444,&,,,,,>&>>&>>>&&>>&&>&&&>>>>&>,$$$$3333$$$$$$$$$$$$$$$$#ooo#$$$===========577777775511=====================*=OXXX==========================*=*=============================*=*=================                                ",
"=============*==================44444444444444444444444444444444,&>,,,>&>,>&,,,&>,,,,&&&>&&&&>,,####$$$$################oo##o###============5555555511=======================*===============================*===============================*==================                                ",
"                                                                                                                                                                                                                                                                                                ",
"                                                                                                                                                                                                                                                                                                ",
"                                                                                                                                                                                                                                                                                                ",
"                                                                                                                                                                                                                                                                                                ",
"                                                                                                                                                                                                                                                                                                ",
"                                                                                                                                                                                                                                                                                                ",
"                                                                                                                                                                                                                                                                                                ",
"                                                                                                                                                                                                                                                                                                ",
"                                                                                                                                                                                                                                                                                                ",
"                                                                                                                                                                                                                                                                                                ",
"                                                                                                                                                                                                                                                                                                ",
"                                                                                                                                                                                                                                                                                                ",
"                                                                                                                                                                                                                                                                                                ",
"                                                                                                                                                                                                                                                                                                ",
"                                                                                                                                                                                                                                                                                                ",
"                                                                                                                                                                                                                                                                                                ",
"                                                                                                                                                                                                                                                                                                ",
"                                                                                                                                                                                                                                                                                                ",
"                                                                                                                                                                                                                                                                                                ",
"                                                                                                                                                                                                                                                                                                ",
"                                                                                                                                                                                                                                                                                                ",
"                                                                                                                                                                                                                                                                                                ",
"                                                                                                                                                                                                                                                                                                ",
"                                                                                                                                                                                                                                                                                                ",
"                                                                                                                                                                                                                                                                                                ",
"                                                                                                                                                                                                                                                                                                ",
"                                                                                                                                                                                                                                                                                                ",
"                                                                                                                                                                                                                                                                                                ",
"                                                                                                                                                                                                                                                                                                ",
"                                                                                                                                                                                                                                                                                                ",
"                                                                                                                                                                                                                                                                                                ",
"                                                                                                                                                                                                                                                                                                "
};
